<?xml version="1.0" encoding="UTF-8"?>
<svg version="1.1" xmlns="http://www.w3.org/2000/svg" width="3000" height="3000">
<path d="M0 0 C2.64 0 5.28 0 8 0 C10.78261045 6.8960346 11.46853439 13.12893879 11.7890625 20.546875 C11.90866755 23.84551977 11.90866755 23.84551977 12.49780273 26.4152832 C12.98573507 28.92658103 13.17031139 31.25470263 13.24609375 33.80859375 C13.27759521 34.71383789 13.30909668 35.61908203 13.34155273 36.55175781 C13.37321533 37.50405273 13.40487793 38.45634766 13.4375 39.4375 C13.80738088 48.80986635 14.46076911 57.98523488 16.47705078 67.17407227 C17.93270537 73.91338878 18.5481907 80.56414188 19 87.4375 C19.4726026 94.60093016 20.19027866 101.53611197 21.56298828 108.58569336 C22.10478464 111.57889123 22.30949201 114.5252195 22.4375 117.5625 C22.81913555 123.90458897 23.79568424 130.00621306 24.91381836 136.24731445 C25.75714334 141.10327576 26.25460441 145.82675097 26.5 150.75 C26.74646128 155.43769356 27.28841215 159.74771085 28.375 164.3125 C30.31620525 172.54359089 31.11348543 180.88927078 31.99755859 189.2902832 C32.11437988 190.3855835 32.23120117 191.48088379 32.3515625 192.609375 C32.45291504 193.59905273 32.55426758 194.58873047 32.65869141 195.60839844 C32.87258633 198.00880879 32.87258633 198.00880879 34 200 C34.32743893 201.97356375 34.61120716 203.95442575 34.875 205.9375 C37.55683476 225.68836897 37.55683476 225.68836897 41.53125 245.20703125 C42.71887204 250.1932973 43.31472234 255.03256102 43.71875 260.140625 C44.05007427 268.10549918 44.05007427 268.10549918 47 275 C47.31035444 276.65107053 47.56525551 278.31261953 47.796875 279.9765625 C47.94842041 281.02859863 48.09996582 282.08063477 48.25610352 283.16455078 C48.50058228 284.87747314 48.50058228 284.87747314 48.75 286.625 C50.35044938 297.46145383 52.42587248 308.10068927 54.83984375 318.78125 C55.87773514 323.37846383 56.78763109 327.98752544 57.625 332.625 C58.66706351 338.35049504 59.90486024 343.99545352 61.25 349.65625 C62.36783265 354.63992055 63.26153792 359.66007023 64.15625 364.6875 C65.24648653 370.4997304 66.64744401 376.24447742 68 382 C69.02279707 386.37454381 70.04298505 390.74969031 71.0625 395.125 C71.44631836 396.75888672 71.44631836 396.75888672 71.83789062 398.42578125 C73.24667345 404.48825539 74.50968542 410.53883604 75.52539062 416.68017578 C75.96821487 418.84463873 76.58164774 420.71911432 77.4375 422.75 C79.1788507 427.03372271 79.9483794 431.43163733 80.81103516 435.96142578 C83.10909794 447.91894436 86.38987367 459.61304101 89.8059082 471.29150391 C91.70679181 477.82209232 93.37225635 484.39666379 95 491 C98.76335244 506.01805098 102.78365771 520.90390027 107.37109375 535.69140625 C110.18679743 544.7901939 112.70745717 553.97798126 115.08984375 563.19921875 C115.26491455 563.87210938 115.43998535 564.545 115.62036133 565.23828125 C116.08855038 567.04670961 116.54853006 568.8572579 117.0078125 570.66796875 C117.94273471 574.04620163 117.94273471 574.04620163 119.43359375 577.32421875 C121.2898067 581.68007008 122.61755804 586.08387947 123.9375 590.625 C124.4632696 592.40372627 124.98931151 594.18237208 125.515625 595.9609375 C125.76892578 596.82170898 126.02222656 597.68248047 126.28320312 598.56933594 C127.23621224 601.80099763 128.20619903 605.02680374 129.1875 608.25 C129.46980469 609.18328125 129.75210937 610.1165625 130.04296875 611.078125 C130.97757346 613.9315304 132.02287176 616.72975938 133.08764648 619.53662109 C134.89730232 624.42274028 136.58069477 629.35386047 138.27905273 634.27954102 C138.93042306 636.16699341 139.5853098 638.05323107 140.24023438 639.93945312 C142.67356075 646.98834548 144.98404098 654.05600025 147.11987305 661.20092773 C148.49498623 665.57420724 150.23626163 669.77194426 152 674 C155.33868024 682.09848969 158.46555761 690.21620547 161.3125 698.5 C163.96108148 706.19131849 166.79040271 713.79785216 169.75 721.375 C170.12680908 722.34373047 170.50361816 723.31246094 170.8918457 724.31054688 C172.73749035 728.99910294 174.74050539 733.49399637 177 738 C177.68213744 739.99477642 178.34759811 741.99530147 179 744 C180.06156205 746.72607428 181.1864003 749.42504482 182.3125 752.125 C182.7760791 753.24116699 182.7760791 753.24116699 183.24902344 754.37988281 C183.87252821 755.88081711 184.49670408 757.38147281 185.12158203 758.88183594 C185.91085367 760.78503792 186.68859023 762.69301385 187.46484375 764.6015625 C188.10099609 766.16003906 188.10099609 766.16003906 188.75 767.75 C189.11609375 768.65234375 189.4821875 769.5546875 189.859375 770.484375 C191.05761918 773.12707791 192.50476611 775.51591809 194 778 C194.59917851 779.38048617 195.16106098 780.77767061 195.6875 782.1875 C198.83427283 790.25036321 202.45053714 798.10864997 206 806 C206.60086426 807.34143066 206.60086426 807.34143066 207.21386719 808.70996094 C211.66769389 818.64649366 216.16725701 828.53853748 221.1081543 838.24365234 C223.10536274 842.17398232 225.00370681 846.13575019 226.84350586 850.14208984 C230.55344596 858.21254156 234.6604927 865.98949718 238.98999023 873.74438477 C241.73694196 878.67218857 244.38554914 883.62468421 246.875 888.6875 C249.05930483 893.12874688 251.31796349 897.4912591 253.7578125 901.796875 C255.18407379 904.32647049 256.55945657 906.88133654 257.9375 909.4375 C260.26829526 913.71554194 262.70668036 917.90626818 265.234375 922.0703125 C267.51985078 925.86258426 269.75902928 929.68131293 272 933.5 C273.29417518 935.70109443 274.5888691 937.90188273 275.88378906 940.10253906 C276.77490515 941.61735845 277.66497356 943.13279415 278.5546875 944.6484375 C281.93535321 950.34956014 285.46635872 955.95544431 289 961.5625 C289.49870605 962.35446777 289.99741211 963.14643555 290.51123047 963.96240234 C293.5021708 968.69159989 296.56269734 973.36691762 299.67822266 978.01489258 C301.22489629 980.33775984 302.7123978 982.69363615 304.1875 985.0625 C308.91599527 992.51817566 313.95424243 999.75711083 319 1007 C319.72993164 1008.04945801 319.72993164 1008.04945801 320.47460938 1009.12011719 C327.76416628 1019.5826054 335.28065828 1029.85104324 343 1040 C343.42490723 1040.56138672 343.84981445 1041.12277344 344.28759766 1041.70117188 C350.83814979 1050.35215868 357.63840657 1058.78454707 364.51171875 1067.1796875 C365.81409379 1068.77261865 367.11066032 1070.3702952 368.40625 1071.96875 C377.45008864 1083.10971064 386.77258175 1093.91768573 396.66064453 1104.3190918 C399.59351487 1107.40781323 402.46982413 1110.5205771 405.24511719 1113.75219727 C408.88010692 1117.91805765 412.70677099 1121.85157771 416.62109375 1125.75390625 C417.67648094 1126.81072853 417.67648094 1126.81072853 418.75318909 1127.88890076 C420.23014648 1129.36653367 421.70834742 1130.84292457 423.18774414 1132.31811523 C425.43165085 1134.55666481 427.67016704 1136.80050473 429.90820312 1139.04492188 C431.35384618 1140.48990404 432.79979945 1141.93457592 434.24609375 1143.37890625 C434.9046788 1144.03951553 435.56326385 1144.70012482 436.24180603 1145.38075256 C440.11917807 1149.23895229 444.10439168 1152.91728008 448.24908447 1156.48719788 C450.65253204 1158.56379182 452.97953864 1160.71982263 455.3125 1162.875 C461.69683093 1168.69574861 468.37435038 1174.11980363 475.13671875 1179.4921875 C476.14347656 1180.29914063 477.15023438 1181.10609375 478.1875 1181.9375 C479.10917969 1182.66839844 480.03085938 1183.39929687 480.98046875 1184.15234375 C481.64691406 1184.76207031 482.31335937 1185.37179687 483 1186 C483 1186.66 483 1187.32 483 1188 C483.88365234 1188.4021875 483.88365234 1188.4021875 484.78515625 1188.8125 C487.02145811 1190.01150488 488.58137541 1191.28029437 490.4375 1193 C495.51514495 1197.54067693 500.91475179 1201.63696017 506.34179688 1205.74462891 C507.91297267 1206.93411447 509.48004784 1208.12901085 511.046875 1209.32421875 C525.51076506 1220.28692907 540.66098943 1231.19945954 556.70703125 1239.765625 C559.79762035 1241.42938336 562.83282255 1243.18746724 565.875 1244.9375 C575.01514218 1250.16894084 584.22647149 1255.15570517 593.66650391 1259.8215332 C598.0111829 1261.97752011 602.30189632 1264.21542632 606.57226562 1266.51489258 C612.93143995 1269.93900853 619.2465816 1273.08535313 625.96875 1275.75390625 C629.58085147 1277.23877786 633.09711648 1278.88950119 636.625 1280.5625 C641.56613846 1282.89944096 646.53204321 1285.07173595 651.62890625 1287.046875 C654.19030736 1288.07649917 656.68344874 1289.21306138 659.1875 1290.375 C666.01739862 1293.51907514 673.00764354 1296.24427873 680 1299 C681.77133907 1299.70706767 683.54224313 1300.4152272 685.3125 1301.125 C686.10011719 1301.43953125 686.88773438 1301.7540625 687.69921875 1302.078125 C689.22410148 1302.68911367 690.7475647 1303.30365795 692.26953125 1303.921875 C698.10853978 1306.28459155 703.99390796 1308.51458897 709.89599609 1310.71386719 C714.19448067 1312.31682899 718.47600713 1313.95747577 722.75 1315.625 C727.88396164 1317.60987736 733.06304432 1319.38795685 738.29296875 1321.1015625 C742.62997277 1322.5409722 746.90738072 1324.1103467 751.11328125 1325.8984375 C757.02020077 1328.38033646 763.0365625 1330.24075731 769.18823242 1332.0012207 C775.36053071 1333.77890198 781.44315225 1335.77463761 787.52685547 1337.83276367 C792.9898437 1339.67707519 798.47964033 1341.4024949 804.0078125 1343.04296875 C806.23590983 1343.75561085 808.43607565 1344.55675071 810.6171875 1345.40234375 C815.96927023 1347.43583102 821.4802654 1348.87300294 827 1350.375 C834.1810496 1352.35464915 841.34291301 1354.35326653 848.4375 1356.625 C856.03683716 1359.04297091 863.69631603 1361.17442472 871.38623047 1363.28027344 C876.42915818 1364.66889205 881.46386651 1366.0869814 886.5 1367.5 C890.66653883 1368.66712336 894.83326241 1369.83358648 899 1371 C899.90508301 1371.25346191 900.81016602 1371.50692383 901.74267578 1371.76806641 C904.18228269 1372.45074905 906.62231056 1373.13190294 909.0625 1373.8125 C909.75730469 1374.00714844 910.45210937 1374.20179687 911.16796875 1374.40234375 C916.58296147 1375.91004761 922.02911275 1377.2726559 927.48803711 1378.60913086 C930.1383818 1379.2581397 932.78794584 1379.91027228 935.4375 1380.5625 C936.34693359 1380.78357422 937.25636719 1381.00464844 938.19335938 1381.23242188 C939.05638672 1381.44576172 939.91941406 1381.65910156 940.80859375 1381.87890625 C941.98119751 1382.16616577 941.98119751 1382.16616577 943.17749023 1382.45922852 C945 1383 945 1383 946 1384 C948.13902384 1384.45032081 950.2869197 1384.85857163 952.4375 1385.25 C958.15432369 1386.33692934 963.72378147 1387.69514907 969.3125 1389.3125 C980.04035624 1392.3996358 990.91648785 1394.81876122 1001.80249023 1397.27612305 C1012.48940828 1399.69551008 1023.1400373 1402.2188418 1033.74609375 1404.97265625 C1041.22154758 1406.89889204 1048.68086075 1408.56600178 1056.28027344 1409.92578125 C1061.19943573 1410.81621496 1065.999013 1411.97560341 1070.83203125 1413.2421875 C1075.46440412 1414.35030136 1080.14215789 1415.1826339 1084.83398438 1415.99804688 C1089.89744462 1416.89744462 1089.89744462 1416.89744462 1091 1418 C1092.4962859 1418.34241784 1094.00429116 1418.63403142 1095.515625 1418.90234375 C1096.43730469 1419.07056641 1097.35898438 1419.23878906 1098.30859375 1419.41210938 C1100.25371349 1419.75954444 1102.19902345 1420.10591644 1104.14453125 1420.45117188 C1105.07136719 1420.62068359 1105.99820313 1420.79019531 1106.953125 1420.96484375 C1107.80036133 1421.1155835 1108.64759766 1421.26632324 1109.52050781 1421.42163086 C1112 1422 1112 1422 1114.50390625 1423.01806641 C1117.06528246 1424.02568134 1119.25684084 1424.4333344 1121.984375 1424.74609375 C1122.92023437 1424.86146484 1123.85609375 1424.97683594 1124.8203125 1425.09570312 C1126.7575738 1425.32171694 1128.69507209 1425.54570947 1130.6328125 1425.76757812 C1136.04319747 1426.43831763 1140.89161359 1427.48750478 1146.02001953 1429.33325195 C1148.67956518 1430.22884001 1151.27711218 1430.57407536 1154.0625 1430.875 C1161.84277463 1431.87399065 1169.45711954 1433.49058464 1177.12133789 1435.14794922 C1183.16172469 1436.44513966 1189.20411808 1437.57360846 1195.30273438 1438.56201172 C1198.60698355 1439.0985634 1201.8973975 1439.69536915 1205.1875 1440.3125 C1205.83493164 1440.43367188 1206.48236328 1440.55484375 1207.14941406 1440.6796875 C1211.40023044 1441.48342148 1215.64086247 1442.33066123 1219.87890625 1443.19921875 C1230.61777662 1445.39512455 1241.32029008 1447.44235549 1252.17480469 1448.9765625 C1257.9531998 1449.80439933 1263.60228576 1450.95738931 1269.296875 1452.24609375 C1274.79504448 1453.36544682 1280.33544853 1454.14189593 1285.88745117 1454.94311523 C1290.80574334 1455.65664252 1295.657068 1456.48809804 1300.515625 1457.5390625 C1303.84831164 1458.15739115 1307.19761455 1458.53185175 1310.5625 1458.9375 C1314.78932097 1459.47061256 1318.64029143 1460.05080577 1322.625 1461.5625 C1327.23559374 1463.29470438 1331.71222266 1463.41381541 1336.59765625 1463.69921875 C1339.88840516 1463.99013455 1342.91089074 1464.56213991 1346.125 1465.3125 C1354.55605563 1467.26475352 1363.10008721 1468.38654 1371.67041016 1469.55395508 C1372.80140137 1469.71275146 1373.93239258 1469.87154785 1375.09765625 1470.03515625 C1376.11351807 1470.1731665 1377.12937988 1470.31117676 1378.17602539 1470.45336914 C1380.99044225 1470.99814993 1383.35966071 1471.9069384 1386 1473 C1388.09748428 1473.23633626 1390.20416073 1473.39900171 1392.3125 1473.5 C1395.97851495 1473.67688854 1399.35275253 1474.03046998 1402.890625 1474.97265625 C1407.05277006 1476.07943454 1411.15856273 1476.53329438 1415.4375 1476.9375 C1420.87228246 1477.50253974 1425.58793278 1478.35878457 1430.69921875 1480.34375 C1434.90206024 1481.54252312 1439.26044419 1481.52323864 1443.60546875 1481.75390625 C1454.5471464 1482.5471464 1454.5471464 1482.5471464 1457 1485 C1459.28804167 1485.21066368 1461.58103822 1485.36864841 1463.875 1485.5 C1470.67245658 1485.89081886 1470.67245658 1485.89081886 1474 1487 C1475.80161952 1487.26016872 1477.60874323 1487.48303538 1479.41796875 1487.68359375 C1480.50094238 1487.80565186 1481.58391602 1487.92770996 1482.69970703 1488.0534668 C1483.85067871 1488.18019775 1485.00165039 1488.30692871 1486.1875 1488.4375 C1488.54303528 1488.70253433 1490.89850423 1488.96815889 1493.25390625 1489.234375 C1494.40391113 1489.36392578 1495.55391602 1489.49347656 1496.73876953 1489.62695312 C1503.16617226 1490.36217332 1509.5834278 1491.17611988 1516 1492 C1516 1493.98 1516 1495.96 1516 1498 C1510.75771067 1499.71303155 1506.11650843 1500.29217733 1500.625 1500.4375 C1492.2164768 1500.77905552 1484.18996188 1502.03209735 1475.94140625 1503.63134766 C1468.97244782 1504.95467855 1462.01505286 1505.96994146 1454.9375 1506.4375 C1449.82922854 1506.81143883 1445.20082834 1507.90824513 1440.26953125 1509.24609375 C1436.51442684 1510.11196609 1432.76163981 1510.58052901 1428.9375 1511 C1423.40296342 1511.61113208 1418.26916925 1512.66290761 1412.94140625 1514.2734375 C1408.44943097 1515.38300908 1403.90009711 1515.86115031 1399.3046875 1516.35351562 C1395.53092743 1516.71913854 1395.53092743 1516.71913854 1392 1518 C1390.16908141 1518.15643925 1388.33490416 1518.27568818 1386.5 1518.375 C1382.43423168 1518.67509242 1378.86464995 1519.20760083 1375 1520.5 C1371.25458809 1521.7504746 1367.87979211 1522.26077115 1363.9375 1522.5 C1360.25585862 1522.7286444 1357.19335557 1523.11918672 1353.75 1524.4375 C1349.08249649 1526.17210184 1344.4257963 1526.67813696 1339.49487305 1527.23242188 C1331.27438757 1528.16400747 1323.14825232 1529.58166685 1315 1531 C1313.60677566 1531.2396114 1312.2135466 1531.47919534 1310.8203125 1531.71875 C1304.87073148 1532.74987933 1298.92950911 1533.81070652 1293.00390625 1534.97265625 C1283.0354408 1536.92416465 1273.09212934 1538.66402264 1263.01464844 1539.9609375 C1258.17303802 1540.60266575 1253.69602264 1541.61437679 1249 1543 C1246.31294338 1543.5127151 1243.63571141 1543.99579093 1240.9375 1544.4375 C1235.83961724 1545.2763921 1230.79329697 1546.2485998 1225.74609375 1547.35546875 C1217.17833099 1549.21393207 1208.56118688 1550.78121394 1199.93814087 1552.35946655 C1184.49521907 1555.18952131 1169.08710402 1558.11016544 1153.73779297 1561.41455078 C1148.6218597 1562.50854115 1143.49760641 1563.56278862 1138.375 1564.625 C1131.1768418 1566.12254982 1123.98366582 1567.64011116 1116.796875 1569.19140625 C1112.66724432 1570.07086464 1108.53340706 1570.92860188 1104.39892578 1571.78491211 C1093.24374369 1574.09672803 1082.10877565 1576.47479395 1071 1579 C1069.99114746 1579.2283252 1068.98229492 1579.45665039 1067.94287109 1579.69189453 C1056.34342679 1582.32151305 1044.77865216 1584.98212676 1033.30859375 1588.1328125 C1028.68846961 1589.34375413 1024.02703117 1590.31027231 1019.3515625 1591.28125 C1015.21018156 1592.16937831 1011.11213487 1593.19438267 1007.01171875 1594.25390625 C1003.0232865 1595.24196145 999.01319351 1596.11880348 995 1597 C984.01439436 1599.4215526 973.07087587 1601.83680287 962.28125 1605.03515625 C956.22234565 1606.81676265 950.10531983 1608.38631505 944 1610 C941.66658469 1610.62469386 939.33325259 1611.24969864 937 1611.875 C931.56086025 1613.32733574 926.11492074 1614.75120299 920.66552734 1616.16455078 C909.74447686 1618.99911758 898.8555466 1621.9242618 888 1625 C887.19949219 1625.22655273 886.39898438 1625.45310547 885.57421875 1625.68652344 C867.00071297 1630.95094246 848.42676323 1636.24004358 830 1642 C828.04202823 1642.60533737 826.08367473 1643.20944103 824.125 1643.8125 C823.06023438 1644.14121094 821.99546875 1644.46992187 820.8984375 1644.80859375 C817.82453127 1645.75256871 814.74485943 1646.67643228 811.6640625 1647.59765625 C810.69194824 1647.88987061 809.71983398 1648.18208496 808.71826172 1648.4831543 C806.81723558 1649.05433776 804.9152955 1649.62249353 803.01220703 1650.18676758 C796.50442736 1652.14688016 790.1058625 1654.35018202 783.70658875 1656.63328552 C778.52455789 1658.47682431 773.32220002 1660.24564712 768.09765625 1661.96484375 C767.36068512 1662.20747452 766.62371399 1662.45010529 765.8644104 1662.7000885 C764.36320406 1663.19394423 762.86193209 1663.68760052 761.3605957 1664.18106079 C745.04825242 1669.54561149 745.04825242 1669.54561149 728.9921875 1675.62426758 C723.57628803 1677.81202717 718.08814795 1679.73316282 712.5625 1681.625 C706.47675374 1683.71455615 700.62985892 1685.96891785 694.82421875 1688.7578125 C691.16024711 1690.3693519 687.41089899 1691.64434834 683.625 1692.9375 C677.18566205 1695.14311404 671.06782282 1697.65037177 664.9296875 1700.60546875 C661.65700351 1702.16326633 658.33796854 1703.59005985 655 1705 C643.59186434 1709.84948075 632.22345561 1714.73485723 621 1720 C618.81269862 1721.00043437 616.62519529 1722.0004273 614.4375 1723 C597.96018956 1730.62001961 581.8546648 1739.16067361 566 1748 C564.94039062 1748.59039063 563.88078125 1749.18078125 562.7890625 1749.7890625 C551.39569667 1756.21543289 540.21966962 1763.03887148 529.39453125 1770.38671875 C527.44470581 1771.70038581 525.48351578 1772.98940897 523.51171875 1774.26953125 C516.61443367 1778.76871581 510.04933537 1783.39892646 503.74609375 1788.71875 C500.70962699 1791.24122025 497.58594255 1793.62048553 494.4375 1796 C489.63812809 1799.6511332 485.1012782 1803.49892559 480.6640625 1807.58203125 C476.89064735 1811.0068758 473.00891633 1814.29993741 469.12817383 1817.60205078 C464.89764891 1821.20857182 460.75368075 1824.89697194 456.671875 1828.671875 C455 1830 455 1830 453 1830 C453 1830.66 453 1831.32 453 1832 C451.6015625 1833.41015625 451.6015625 1833.41015625 449.625 1835.0625 C448.89539062 1835.68382812 448.16578125 1836.30515625 447.4140625 1836.9453125 C446.61742187 1837.62335938 445.82078125 1838.30140625 445 1839 C439.31904853 1843.99995413 433.81140788 1849.08145032 428.59375 1854.56640625 C427 1856 427 1856 425 1856 C424.79060791 1856.53608887 424.58121582 1857.07217773 424.36547852 1857.62451172 C422.4699875 1860.92204928 419.85236115 1863.37324428 417.15234375 1866.0078125 C416.29450035 1866.85785355 416.29450035 1866.85785355 415.41932678 1867.72506714 C413.59674775 1869.52987272 411.76760926 1871.32783318 409.9375 1873.125 C408.10471379 1874.93017315 406.27340471 1876.73678389 404.44496155 1878.5463562 C403.30807969 1879.67097536 402.16853542 1880.79291063 401.02610779 1881.91189575 C398.15256386 1884.68030188 398.15256386 1884.68030188 396 1888 C395.34 1888 394.68 1888 394 1888 C393.68095703 1888.79664063 393.68095703 1888.79664063 393.35546875 1889.609375 C391.4774904 1892.92154431 388.91939806 1895.50909879 386.3125 1898.25 C385.21937321 1899.4173334 384.12692172 1900.58529955 383.03515625 1901.75390625 C382.2464917 1902.59526123 382.2464917 1902.59526123 381.44189453 1903.45361328 C376.40468297 1908.85586489 371.74556034 1914.52161942 367.16015625 1920.30859375 C364.85606931 1923.17932775 362.49570946 1925.99658688 360.125 1928.8125 C354.89729328 1935.06821612 349.91589684 1941.49774848 345 1948 C344.30801514 1948.91241455 344.30801514 1948.91241455 343.60205078 1949.84326172 C333.32807175 1963.40157404 323.14978654 1977.04851761 313.82421875 1991.28125 C311.95814119 1994.06238487 309.99697114 1996.74912106 308 1999.4375 C304.35129867 2004.40001942 301.11849239 2009.54929467 297.9296875 2014.81640625 C294.316155 2020.77800339 290.53885819 2026.63674251 286.73828125 2032.48046875 C283.07869967 2038.11771067 279.49131063 2043.74524506 276.3046875 2049.66796875 C274.64798157 2052.6292066 272.85626365 2055.49482477 271.0625 2058.375 C268.00468013 2063.30308118 265.15503473 2068.29259632 262.421875 2073.40625 C261.06214301 2075.88664022 259.61526242 2078.28385093 258.125 2080.6875 C255.06705649 2085.70896513 252.46728926 2090.92429478 249.89111328 2096.20385742 C248.0875958 2099.88829067 246.18184578 2103.46509005 244.12060547 2107.01489258 C241.66746037 2111.36054025 239.4186033 2115.81878153 237.125 2120.25 C234.07786349 2126.13385694 231.01281298 2131.99886688 227.8046875 2137.796875 C225.60784974 2141.79815576 223.74118139 2145.78450822 222 2150 C220.89183764 2152.25834036 219.76649812 2154.50832495 218.625 2156.75 C216.06656405 2161.81390638 213.62805164 2166.91422658 211.3125 2172.09375 C210.04100408 2174.90920526 208.73173987 2177.70517099 207.41357422 2180.49902344 C204.07236624 2187.5885989 200.95329474 2194.73859873 198 2202 C195.51539837 2208.08613427 193.02565604 2214.1088099 190.02734375 2219.9609375 C186.32780837 2227.30374156 183.2264866 2234.84933104 180.3203125 2242.53515625 C178.89762131 2246.26866833 177.42588525 2249.97983018 175.9375 2253.6875 C175.68105713 2254.32727783 175.42461426 2254.96705566 175.16040039 2255.6262207 C174.09199547 2258.28914684 173.02004953 2260.95057903 171.94140625 2263.609375 C169.59854959 2269.40332757 167.39805439 2275.24510073 165.2175293 2281.1015625 C163.79912636 2284.90199896 162.34241712 2288.68011735 160.8125 2292.4375 C159.31903646 2296.11891836 158.03904469 2299.83254737 156.81738281 2303.61157227 C156.02174028 2305.93647395 155.12885091 2308.18991079 154.19140625 2310.4609375 C151.71466109 2316.60580227 149.57642127 2322.85612113 147.4375 2329.125 C143.09891745 2341.80032465 143.09891745 2341.80032465 141.5625 2345.796875 C139.28816363 2351.77588906 137.31605454 2357.86585522 135.29370117 2363.93359375 C134.57081843 2366.10006971 133.84315305 2368.26489924 133.11523438 2370.4296875 C130.53207404 2378.14869474 128.13012552 2385.88475159 125.9362793 2393.72558594 C124.46235462 2398.88028677 122.79050997 2403.96717214 121.125 2409.0625 C118.25833574 2417.91290021 115.58095919 2426.79302186 113.07861328 2435.75268555 C111.69139359 2440.68654781 110.17977624 2445.53297834 108.5 2450.375 C104.11494153 2463.20483235 101.09711472 2476.48712844 97.84765625 2489.640625 C96.32356535 2495.68080091 94.73577339 2501.70458702 93.15625 2507.73046875 C91.39337477 2514.46227725 89.67886691 2521.20285822 88.03515625 2527.96484375 C87.7109375 2529.2890625 87.38671875 2530.61328125 87.0625 2531.9375 C86.90587891 2532.58912109 86.74925781 2533.24074219 86.58789062 2533.91210938 C85.71488409 2537.45630723 84.71246024 2540.8882623 83.5 2544.33203125 C81.77770384 2549.38391916 80.8474017 2554.50027907 79.9375 2559.75 C79.00387989 2565.09675613 78.05703469 2569.96524171 76 2575 C75.33530627 2578.43483093 74.76683791 2581.86595364 74.23242188 2585.32226562 C73.58271274 2589.28872196 72.72793566 2593.05580654 71.52734375 2596.89453125 C69.92438989 2602.0375688 68.92402068 2607.19862711 68 2612.5 C66.91115316 2618.74702807 65.54663792 2624.7210393 63.65576172 2630.77587891 C62.85831656 2633.48054212 62.41154497 2636.14121838 62.0625 2638.9375 C61.2941733 2644.39902228 60.2400451 2649.74138873 59.0625 2655.125 C57.42270452 2662.63673811 56.10657169 2670.1555685 55.03930664 2677.77001953 C54.93094482 2678.51364746 54.82258301 2679.25727539 54.7109375 2680.0234375 C54.57631104 2680.99676025 54.57631104 2680.99676025 54.43896484 2681.98974609 C54 2684 54 2684 53.03393555 2686.28271484 C51.76500949 2689.61757837 51.24803826 2692.94133177 50.74609375 2696.453125 C50.58742577 2697.50436554 50.58742577 2697.50436554 50.42555237 2698.57684326 C50.0904601 2700.80041616 49.76329661 2703.02504756 49.4375 2705.25 C49.10744194 2707.48911391 48.77560759 2709.72790403 48.43873596 2711.96600342 C48.13493239 2713.98610674 47.83769464 2716.00719422 47.54077148 2718.02832031 C47 2721 47 2721 46 2722 C45.7492486 2723.56489187 45.55572524 2725.13902662 45.38671875 2726.71484375 C45.27521484 2727.70186279 45.16371094 2728.68888184 45.04882812 2729.70581055 C44.92958984 2730.77226807 44.81035156 2731.83872559 44.6875 2732.9375 C43.71640267 2741.20219706 42.44195462 2749.22173922 40.48779297 2757.30664062 C38.85718538 2764.20572722 37.87458468 2771.16147879 36.95117188 2778.1862793 C36.83966797 2779.03101807 36.72816406 2779.87575684 36.61328125 2780.74609375 C36.51829346 2781.49560303 36.42330566 2782.2451123 36.32543945 2783.01733398 C36 2785 36 2785 35 2788 C34.69459331 2791.09224276 34.49167689 2794.18511719 34.28125 2797.28515625 C34 2800 34 2800 33 2802 C32.74369851 2803.85296075 32.53559411 2805.71269079 32.3515625 2807.57421875 C32.23482178 2808.70907715 32.11808105 2809.84393555 31.99780273 2811.01318359 C31.81326538 2812.83197021 31.81326538 2812.83197021 31.625 2814.6875 C30.83843379 2822.15768735 30.056533 2829.53593162 28.4375 2836.875 C27.09117903 2843.06117226 26.4405307 2849.13196785 25.90991211 2855.42651367 C25.11656012 2864.47482314 23.97426228 2873.47160548 22.84042358 2882.48202515 C21.09505436 2896.3531339 19.44930823 2910.17186794 18.6328125 2924.13549805 C18.57480469 2925.07176025 18.51679687 2926.00802246 18.45703125 2926.97265625 C18.3947937 2928.15226929 18.3947937 2928.15226929 18.33129883 2929.35571289 C18 2932 18 2932 17.02026367 2935.67431641 C15.76807235 2940.49978519 15.48660293 2945.27444594 15.21875 2950.23828125 C15.15973511 2951.19969528 15.10072021 2952.16110931 15.03991699 2953.1516571 C14.85284728 2956.20489535 14.67533849 2959.25856713 14.5 2962.3125 C14.32436122 2965.35569592 14.14631202 2968.39864056 13.96008301 2971.44120789 C13.84470632 2973.32642562 13.73514353 2975.21201246 13.63269043 2977.09797668 C12.63301151 2993.44794385 12.63301151 2993.44794385 9 3000 C6.69 3000 4.38 3000 2 3000 C-0.07856947 2989.63857289 -0.38777834 2979.49607766 -0.56640625 2968.95703125 C-0.73562083 2961.72494705 -1.33456164 2955.03498417 -3 2948 C-4.51406757 2939.5885135 -5.22819842 2931.20303149 -5.8125 2922.6875 C-6.7627393 2909.03907367 -8.43217311 2895.50008064 -10.14770508 2881.93041992 C-10.35897702 2880.2570101 -10.57015952 2878.58358898 -10.78125 2876.91015625 C-10.88451599 2876.09389771 -10.98778198 2875.27763916 -11.09417725 2874.43664551 C-11.93385516 2867.71955458 -12.65811252 2860.99307658 -13.32275391 2854.25648499 C-13.935965 2848.16010848 -14.79530608 2842.13826157 -16.51171875 2836.2421875 C-17.08048712 2833.63040313 -17.31060961 2831.02620759 -17.54492188 2828.36645508 C-18.50043764 2817.63169049 -20.29248648 2807.09571912 -22.18041992 2796.49023438 C-23.51110963 2788.9741284 -24.61318082 2781.5088788 -25.4765625 2773.92578125 C-26.25945415 2768.05409388 -27.37430127 2762.25069583 -28.46679688 2756.42993164 C-29.63912191 2750.13631125 -30.65445756 2743.83683471 -31.5625 2737.5 C-32.55074966 2730.60377992 -33.84242923 2723.88081137 -35.38671875 2717.0859375 C-35.95733721 2714.21467265 -36.25353701 2711.48023858 -36.4375 2708.5625 C-36.74900331 2704.18873926 -37.67109932 2700.27842389 -38.875 2696.0625 C-40.5953102 2689.98241449 -41.69756392 2684.0065262 -42.5625 2677.75 C-43.41068821 2671.61918603 -44.46127426 2665.81409712 -46.25390625 2659.87890625 C-47.24393536 2656.05874155 -47.8298987 2652.20913555 -48.4375 2648.3125 C-49.43705511 2641.9861192 -50.68743394 2635.81806278 -52.30395508 2629.61376953 C-54.02458239 2622.99771126 -55.5834462 2616.34738782 -57.125 2609.6875 C-57.50555542 2608.05941406 -57.50555542 2608.05941406 -57.89379883 2606.3984375 C-59.27036101 2600.43924661 -60.47420051 2594.48151205 -61.53515625 2588.45874023 C-62.16101203 2585.14834443 -63.02341041 2581.92903057 -63.9375 2578.6875 C-65.271359 2573.95149052 -66.39578737 2569.22197805 -67.41015625 2564.40625 C-68.94034581 2557.16373808 -70.68712578 2549.9887903 -72.5 2542.8125 C-72.79519531 2541.63236328 -73.09039063 2540.45222656 -73.39453125 2539.23632812 C-74.98429812 2532.90877586 -76.63380946 2526.60234883 -78.36572266 2520.31225586 C-79.08934048 2517.67430959 -79.77600654 2515.02919116 -80.4375 2512.375 C-80.68371094 2511.38757812 -80.92992187 2510.40015625 -81.18359375 2509.3828125 C-81.79753963 2506.83890278 -82.39282943 2504.29387893 -82.97265625 2501.7421875 C-83.14289307 2500.9992041 -83.31312988 2500.2562207 -83.48852539 2499.49072266 C-83.81944635 2498.04098875 -84.14576756 2496.59019391 -84.46655273 2495.13818359 C-85.42329712 2490.95310886 -86.69283634 2487.05588259 -88.25048828 2483.05859375 C-89.58088391 2479.40455598 -90.48772976 2475.64235749 -91.4375 2471.875 C-91.87129664 2470.19242456 -92.30620108 2468.51013436 -92.7421875 2466.828125 C-92.95456055 2466.00763672 -93.16693359 2465.18714844 -93.38574219 2464.34179688 C-96.42310405 2452.76215659 -99.96071174 2441.31768699 -103.6328125 2429.92578125 C-106.38841324 2421.362385 -109.11050475 2412.81595965 -111.4375 2404.125 C-113.40136592 2396.83337738 -115.6787764 2389.66489245 -118.0625 2382.5 C-118.39113037 2381.50887207 -118.71976074 2380.51774414 -119.05834961 2379.49658203 C-120.91543273 2373.97778216 -122.95263141 2368.57517571 -125.1496582 2363.18359375 C-126.16383463 2360.57928885 -126.90822786 2357.96584662 -127.5625 2355.25 C-128.61597635 2351.16777915 -130.07823421 2347.75997654 -132 2344 C-132.48354422 2342.06582312 -132.96481034 2340.13082762 -133.41015625 2338.1875 C-134.2842503 2334.94582671 -135.59791922 2331.91670887 -136.88476562 2328.8203125 C-137.97996538 2326.05066549 -138.92946274 2323.27031225 -139.84765625 2320.4375 C-141.92534333 2314.14457974 -144.21330533 2307.94585239 -146.5625 2301.75 C-146.94857422 2300.72648437 -147.33464844 2299.70296875 -147.73242188 2298.6484375 C-148.48118995 2296.66362808 -149.23106003 2294.67923394 -149.98217773 2292.6953125 C-150.87311859 2290.33599683 -151.75439817 2287.97337167 -152.6328125 2285.609375 C-153.79592332 2282.53876244 -155.02096772 2279.51801358 -156.3125 2276.5 C-158.67292385 2270.90201594 -160.80865578 2265.23789821 -162.85668945 2259.51953125 C-164.24229921 2255.72723633 -165.89487857 2252.4322632 -168 2249 C-168.67014505 2247.32991411 -169.29439331 2245.64078422 -169.875 2243.9375 C-172.50698792 2236.48354947 -175.34329036 2229.08102333 -179 2222.0625 C-180.68008534 2218.80900141 -181.97555518 2215.49500471 -183.25 2212.0625 C-186.06609829 2204.60155667 -189.45231091 2197.46977006 -192.90429688 2190.28857422 C-194.0246831 2187.94844489 -195.13139831 2185.60228749 -196.234375 2183.25390625 C-201.55296636 2171.93797433 -207.08413285 2160.74314002 -212.7265625 2149.5859375 C-213.24992187 2148.54695313 -213.77328125 2147.50796875 -214.3125 2146.4375 C-214.76238281 2145.54933594 -215.21226563 2144.66117188 -215.67578125 2143.74609375 C-216.63144513 2141.7642893 -217.52379559 2139.7515213 -218.375 2137.72265625 C-220.22745488 2133.34915112 -222.45453027 2129.1886901 -224.6875 2125 C-225.12666748 2124.17129395 -225.56583496 2123.34258789 -226.01831055 2122.48876953 C-227.34290379 2119.99110213 -228.67129048 2117.49547943 -230 2115 C-230.75280659 2113.58083653 -231.50542404 2112.1615727 -232.2578125 2110.7421875 C-235.40491992 2104.81347162 -238.57134431 2098.89727754 -241.85546875 2093.04296875 C-242.65705682 2091.61214773 -243.45067365 2090.17684528 -244.23828125 2088.73828125 C-246.65334438 2084.33434259 -249.19762751 2080.05929002 -251.890625 2075.8203125 C-253 2074 -253 2074 -254.375 2071.1875 C-256.3911876 2067.23267048 -258.77702375 2063.58122045 -261.1796875 2059.8515625 C-263.32761315 2056.48678626 -265.37465945 2053.06950288 -267.41796875 2049.640625 C-270.20458698 2044.98938075 -273.05415287 2040.37718097 -275.90820312 2035.76708984 C-277.00025131 2033.99959326 -278.08612003 2032.22839887 -279.171875 2030.45703125 C-288.77885746 2014.85826606 -298.68509918 1999.27891962 -309.875 1984.76171875 C-312.41157535 1981.46510335 -314.86214589 1978.11089174 -317.3125 1974.75 C-323.13950291 1966.78145781 -329.04622283 1958.87420434 -335 1951 C-335.63550781 1950.15824219 -336.27101563 1949.31648438 -336.92578125 1948.44921875 C-340.84667573 1943.33053312 -344.98965415 1938.41190399 -349.18188477 1933.51489258 C-356 1925.53827091 -356 1925.53827091 -356 1923 C-356.66 1923 -357.32 1923 -358 1923 C-359.53851766 1921.28048026 -361.00731759 1919.49812503 -362.4375 1917.6875 C-365.45235569 1913.83532998 -365.45235569 1913.83532998 -368.78515625 1910.26953125 C-370 1909 -370 1909 -370 1907 C-370.66 1907 -371.32 1907 -372 1907 C-373.32691027 1905.48483244 -374.58483832 1903.90914348 -375.8125 1902.3125 C-380.00888999 1897.05175908 -384.53687948 1892.33947397 -389.33886719 1887.63256836 C-392.21418931 1884.80657361 -394.97305507 1881.97093783 -397.5625 1878.875 C-400.7234595 1875.16029578 -404.25768672 1871.95844848 -407.88818359 1868.70751953 C-413.40367237 1863.72649701 -418.59748245 1858.43298577 -423.77294922 1853.10180664 C-428.02597485 1848.77639554 -432.4118331 1845.00276778 -437.32348633 1841.43652344 C-437.87673584 1840.9624707 -438.42998535 1840.48841797 -439 1840 C-439 1839.34 -439 1838.68 -439 1838 C-439.54140625 1837.77699219 -440.0828125 1837.55398438 -440.640625 1837.32421875 C-443.74981411 1835.57916062 -446.17832823 1833.24669503 -448.75 1830.8125 C-449.82755696 1829.80928536 -450.90568171 1828.80668022 -451.984375 1827.8046875 C-452.50451172 1827.31967773 -453.02464844 1826.83466797 -453.56054688 1826.33496094 C-471.39581733 1809.79438108 -491.01974348 1794.83003402 -511 1781 C-513.55938214 1779.19381817 -516.1184824 1777.38725543 -518.67578125 1775.578125 C-521.06917765 1773.95302896 -523.50874389 1772.47060933 -526 1771 C-527.15165869 1770.30570997 -528.3026518 1769.61031519 -529.453125 1768.9140625 C-536.23795511 1764.81986048 -543.02963038 1760.77295236 -550 1757 C-551.60427146 1756.12519215 -553.20842809 1755.2501737 -554.8125 1754.375 C-555.73933594 1753.87226562 -556.66617188 1753.36953125 -557.62109375 1752.8515625 C-560.22670915 1751.4237455 -562.82057389 1749.9798375 -565.41015625 1748.5234375 C-576.59226744 1742.26087131 -587.93404829 1736.53645838 -599.55712891 1731.13916016 C-601.80902115 1730.0890573 -604.05257193 1729.02358253 -606.29296875 1727.94921875 C-621.84684545 1720.5062253 -637.65222268 1713.54589776 -653.74609375 1707.3515625 C-656.14833071 1706.35375459 -658.37041003 1705.31257886 -660.66796875 1704.1171875 C-665.89537102 1701.45876227 -671.37412881 1699.51217885 -676.875 1697.5 C-683.51876902 1695.05141595 -690.13839642 1692.57140616 -696.70410156 1689.91992188 C-700.09588871 1688.5608987 -703.51347739 1687.27517418 -706.9375 1686 C-707.96435913 1685.61654419 -707.96435913 1685.61654419 -709.01196289 1685.2253418 C-719.51872996 1681.2981462 -719.51872996 1681.2981462 -730.1171875 1677.62890625 C-735.49166386 1675.84482694 -740.83991225 1673.98787822 -746.1875 1672.125 C-747.20344238 1671.77203857 -748.21938477 1671.41907715 -749.26611328 1671.05541992 C-754.65126518 1669.18103714 -760.02018065 1667.27158025 -765.375 1665.3125 C-770.90243473 1663.32710877 -776.47929391 1661.63803909 -782.12036133 1660.01489258 C-788.13433611 1658.27773084 -794.10073091 1656.40813523 -800.0625 1654.5 C-800.99618408 1654.2014209 -801.92986816 1653.9028418 -802.8918457 1653.59521484 C-804.72973997 1653.00710156 -806.56755118 1652.41872868 -808.40527344 1651.83007812 C-821.72047543 1647.55904192 -821.72047543 1647.55904192 -835.1796875 1643.7734375 C-840.87488665 1642.21159618 -846.51751363 1640.46445528 -852.15625 1638.7109375 C-865.29307212 1634.65232042 -878.56571522 1631.15764605 -891.86222839 1627.66976929 C-892.58187271 1627.48097198 -893.30151703 1627.29217468 -894.04296875 1627.09765625 C-894.75081009 1626.91200104 -895.45865143 1626.72634583 -896.1879425 1626.5350647 C-901.28488208 1625.19535372 -906.36645259 1623.80918619 -911.4375 1622.375 C-927.44702134 1617.86151019 -943.59344047 1613.82247086 -959.73828125 1609.82421875 C-962.56782899 1609.10920728 -965.37778562 1608.35096249 -968.1875 1607.5625 C-978.60884363 1604.67900041 -989.18905487 1602.36182815 -999.71484375 1599.89453125 C-1000.44380859 1599.72356934 -1001.17277344 1599.55260742 -1001.92382812 1599.37646484 C-1003.34039106 1599.04431641 -1004.75705651 1598.71260485 -1006.17382812 1598.38134766 C-1010.16954407 1597.4435971 -1014.14997668 1596.45904394 -1018.125 1595.4375 C-1023.80541359 1593.99991243 -1029.53244729 1592.87365363 -1035.28125 1591.74609375 C-1042.82539582 1590.23250987 -1050.29331858 1588.44419006 -1057.74169922 1586.51708984 C-1064.06830634 1584.88813849 -1070.36801813 1583.51659938 -1076.8125 1582.4375 C-1082.35251302 1581.50982668 -1087.7253977 1580.35937239 -1093.125 1578.80859375 C-1104.97992855 1575.4743951 -1117.03529652 1573.16451478 -1129.15234375 1571.01416016 C-1136.37466476 1569.71957236 -1143.55155925 1568.26873228 -1150.73046875 1566.75390625 C-1165.04212533 1563.74199759 -1179.40003067 1560.97868163 -1193.76464844 1558.23339844 C-1196.76257921 1557.66029825 -1199.75994573 1557.08437607 -1202.75683594 1556.50585938 C-1224.33197705 1552.29930638 -1224.33197705 1552.29930638 -1246.04217529 1548.87911987 C-1251.21268037 1548.16803353 -1256.16451506 1547.05564888 -1261.1953125 1545.6875 C-1265.38486449 1544.66053461 -1269.6218483 1544.09595175 -1273.89453125 1543.52734375 C-1277 1543 -1277 1543 -1280.296875 1542.03125 C-1284.65502514 1540.81758794 -1288.96301887 1540.17847652 -1293.4375 1539.5625 C-1299.65662995 1538.67080324 -1305.83235654 1537.69839257 -1312 1536.5 C-1317.98276984 1535.34204455 -1323.97001915 1534.37751428 -1330 1533.5 C-1351.16079149 1530.40848368 -1351.16079149 1530.40848368 -1360.1875 1527.875 C-1363.7023647 1527.06830974 -1366.84901973 1526.77334389 -1370.4375 1526.5625 C-1374.3342471 1526.31282284 -1377.66562313 1525.95977083 -1381.3125 1524.5625 C-1386.71194856 1522.50271036 -1392.33042443 1522.11632786 -1398.03515625 1521.52734375 C-1400.80881308 1521.15843373 -1403.22108646 1520.73275773 -1405.890625 1520.0234375 C-1410.44483108 1518.82257719 -1415.01903722 1518.26105523 -1419.6875 1517.6875 C-1428.82396416 1516.51557201 -1437.87164049 1515.00094854 -1446.9375 1513.375 C-1455.71049789 1511.8083526 -1464.23852881 1510.53441454 -1473.1484375 1510.1796875 C-1476.96757927 1509.93902925 -1480.34957074 1509.11747835 -1484 1508 C-1484 1505.69 -1484 1503.38 -1484 1501 C-1479.72773224 1500.02628894 -1475.46047778 1499.64544849 -1471.1015625 1499.31640625 C-1469.55466839 1499.19229524 -1468.00779397 1499.06793862 -1466.4609375 1498.94335938 C-1464.04318098 1498.75185148 -1461.62530727 1498.56252349 -1459.20703125 1498.37768555 C-1456.85882533 1498.19692541 -1454.51146828 1498.00724118 -1452.1640625 1497.81640625 C-1451.09341049 1497.73816368 -1451.09341049 1497.73816368 -1450.00112915 1497.65834045 C-1444.3702168 1497.19174362 -1439.33543962 1495.77847987 -1434 1494 C-1432.16833425 1493.72969043 -1430.33135701 1493.49460933 -1428.4921875 1493.28125 C-1427.42355469 1493.15363281 -1426.35492187 1493.02601562 -1425.25390625 1492.89453125 C-1422.99359448 1492.63061045 -1420.73317675 1492.3675957 -1418.47265625 1492.10546875 C-1417.40660156 1491.97785156 -1416.34054687 1491.85023437 -1415.2421875 1491.71875 C-1414.2610498 1491.60466797 -1413.27991211 1491.49058594 -1412.26904297 1491.37304688 C-1410.03841924 1491.23276138 -1410.03841924 1491.23276138 -1409 1490 C-1407.02782972 1489.64602072 -1405.04650815 1489.3426225 -1403.0625 1489.0625 C-1398.94789143 1488.46058128 -1394.87922481 1487.80524064 -1390.8125 1486.9375 C-1387.5102869 1486.2428597 -1384.30144189 1485.82126476 -1380.9375 1485.5625 C-1377.59450653 1485.2769959 -1374.8231693 1484.68445903 -1371.6875 1483.5 C-1367.89535406 1482.10147809 -1364.4707359 1481.72303609 -1360.4375 1481.5 C-1356.61329165 1481.28754398 -1353.45745903 1481.02531558 -1349.9375 1479.5 C-1345.75564856 1477.68903086 -1341.72430886 1477.52818294 -1337.2109375 1477.23828125 C-1330.01297188 1476.70412565 -1322.91512344 1475.64905383 -1316 1473.5625 C-1309.7158992 1471.72886942 -1303.31550075 1470.99444286 -1296.84423828 1470.12744141 C-1290.74808521 1469.29481204 -1284.82191018 1468.16283485 -1278.84375 1466.69140625 C-1271.57149026 1464.92328815 -1264.37344352 1463.80690339 -1256.8984375 1463.44140625 C-1254.31091708 1463.04734991 -1252.24059266 1462.43216337 -1249.7890625 1461.5625 C-1244.91405938 1459.86876321 -1240.10415649 1459.10104034 -1235 1458.4375 C-1229.37421758 1457.68018314 -1223.86180017 1456.79847981 -1218.33105469 1455.51538086 C-1213.95763574 1454.5484467 -1209.53664162 1453.83170147 -1205.125 1453.0625 C-1198.46043062 1451.88143707 -1191.96429731 1450.56647325 -1185.46875 1448.64453125 C-1181.57704126 1447.6284997 -1177.61861983 1447.15934168 -1173.640625 1446.59375 C-1168.75908745 1445.79761941 -1163.96060213 1444.7122437 -1159.14624023 1443.58422852 C-1154.31354348 1442.46622914 -1149.4647895 1441.51797053 -1144.5859375 1440.62109375 C-1135.49255371 1438.94595781 -1126.46806782 1436.98220638 -1117.4375 1435 C-1114.29072414 1434.31084477 -1111.14360477 1433.62328985 -1107.99609375 1432.9375 C-1107.23565765 1432.77172455 -1106.47522156 1432.6059491 -1105.69174194 1432.43515015 C-1099.58026458 1431.11000408 -1093.45414485 1429.87269816 -1087.31665039 1428.67431641 C-1083.86088795 1427.97171678 -1080.43154781 1427.18710229 -1077 1426.375 C-1072.67498373 1425.35330093 -1068.39979234 1424.62854176 -1064 1424 C-1061.99538701 1423.34733531 -1059.99620166 1422.67795528 -1058 1422 C-1047.2365994 1419.03131101 -1047.2365994 1419.03131101 -1041.75 1418.5 C-1038.32423917 1418.04323189 -1035.70858226 1417.11756335 -1032.53515625 1415.82421875 C-1028.41687998 1414.48530304 -1024.15947564 1413.81581051 -1019.8984375 1413.09033203 C-1015.49067753 1412.33018752 -1011.29264354 1411.24397134 -1007 1410 C-1003.2953185 1409.13801322 -999.5711817 1408.36389121 -995.84765625 1407.58789062 C-992.00427007 1406.76054077 -988.30166064 1405.80959877 -984.5859375 1404.51953125 C-979.63696808 1402.81171266 -974.61427755 1401.71741404 -969.5 1400.625 C-961.87110612 1398.94977078 -954.39618587 1397.03379684 -946.93188477 1394.73925781 C-941.34540853 1393.04192969 -935.7108238 1391.83584367 -929.98828125 1390.67578125 C-927.55941052 1390.12650722 -925.42003885 1389.49751583 -923.125 1388.5625 C-918.96095825 1386.87274393 -914.68020506 1385.8853646 -910.31860352 1384.83007812 C-893.77818691 1380.78072605 -877.38188886 1376.06228025 -861.0625 1371.203125 C-856.38417689 1369.81164747 -851.69292671 1368.46627296 -847 1367.125 C-846.13882568 1366.8782251 -845.27765137 1366.6314502 -844.39038086 1366.37719727 C-839.3734988 1364.94478336 -834.34917893 1363.54355962 -829.31640625 1362.16796875 C-828.19298828 1361.85907715 -827.06957031 1361.55018555 -825.91210938 1361.23193359 C-823.72606294 1360.63188615 -821.53861303 1360.03692191 -819.34960938 1359.44775391 C-814.23005702 1358.03930011 -809.72395061 1356.46081698 -805 1354 C-802.7249606 1353.31695035 -800.4309194 1352.69517263 -798.125 1352.125 C-792.53744213 1350.6993304 -787.00680811 1349.14972259 -781.5 1347.4375 C-780.85434082 1347.23979004 -780.20868164 1347.04208008 -779.54345703 1346.83837891 C-775.23186876 1345.48522067 -771.14551398 1343.78911656 -767 1342 C-765.36450095 1341.46716773 -763.71910118 1340.96307654 -762.0625 1340.5 C-758.42122304 1339.47874035 -754.91502191 1338.2271785 -751.38061523 1336.88330078 C-746.45464553 1335.05557456 -741.46984397 1333.39135378 -736.5 1331.6875 C-726.6021088 1328.27755157 -716.77977898 1324.73353174 -707 1321 C-705.57472771 1320.46738605 -704.14892798 1319.93618179 -702.72265625 1319.40625 C-702.00609863 1319.13965576 -701.28954102 1318.87306152 -700.55126953 1318.59838867 C-699.19715321 1318.09493517 -697.84269203 1317.59240764 -696.48779297 1317.09106445 C-693.44074968 1315.95410205 -690.43841186 1314.75905459 -687.44921875 1313.4765625 C-684.12257278 1312.0524717 -680.77674548 1310.79496083 -677.375 1309.5625 C-669.27478492 1306.57165135 -661.29231375 1303.29546711 -653.3125 1300 C-652.10190918 1299.50185791 -650.89131836 1299.00371582 -649.64404297 1298.49047852 C-642.67229705 1295.59861081 -635.78724434 1292.57025845 -628.95703125 1289.35791016 C-625.89593602 1287.95221236 -622.80465765 1286.65098148 -619.6875 1285.375 C-615.81319119 1283.78295633 -612.08257427 1282.07550533 -608.3671875 1280.1484375 C-605.76461295 1278.88580232 -603.11355276 1277.75960981 -600.45043945 1276.6315918 C-593.62943617 1273.73420998 -587.18640941 1270.54227011 -580.80493164 1266.77490234 C-577.02657086 1264.55195315 -573.24110653 1262.68723318 -569.20703125 1260.98828125 C-564.65717565 1258.95091228 -560.34836643 1256.43052796 -556 1254 C-555.24847656 1253.5875 -554.49695313 1253.175 -553.72265625 1252.75 C-544.45602245 1247.65586496 -535.35744276 1242.31370362 -526.47265625 1236.578125 C-524.81717487 1235.52154605 -523.14612683 1234.48898975 -521.4609375 1233.48046875 C-519.11395322 1232.06855281 -516.83553524 1230.5900121 -514.5625 1229.0625 C-513.48162109 1228.33740234 -513.48162109 1228.33740234 -512.37890625 1227.59765625 C-511.59386719 1227.07042969 -510.80882812 1226.54320312 -510 1226 C-509.08605469 1225.39542969 -508.17210937 1224.79085938 -507.23046875 1224.16796875 C-496.84018573 1217.19504605 -486.63908854 1209.98620578 -477 1202 C-476.16855469 1201.3296875 -475.33710937 1200.659375 -474.48046875 1199.96875 C-463.45965914 1191.06174136 -452.79361656 1181.75177461 -442.42236328 1172.09838867 C-439.65193183 1169.51995456 -436.86337312 1166.97481518 -434 1164.5 C-423.63892801 1155.49037218 -413.86202874 1145.9722947 -404.2722168 1136.14746094 C-403.48758057 1135.35114258 -402.70294434 1134.55482422 -401.89453125 1133.734375 C-401.19175049 1133.01475586 -400.48896973 1132.29513672 -399.76489258 1131.55371094 C-398 1130 -398 1130 -396 1130 C-395.7321167 1129.40541992 -395.4642334 1128.81083984 -395.18823242 1128.19824219 C-393.98789327 1125.97760243 -392.79297002 1124.5756393 -390.98828125 1122.828125 C-390.39893799 1122.25046387 -389.80959473 1121.67280273 -389.20239258 1121.07763672 C-388.57872803 1120.4745166 -387.95506348 1119.87139648 -387.3125 1119.25 C-382.95861326 1114.97028041 -378.70275054 1110.69657395 -374.75390625 1106.03515625 C-372.93585978 1103.92557449 -371.05661571 1101.8794534 -369.16333008 1099.83740234 C-355.33491658 1084.91733485 -342.50508897 1069.04506378 -330.1875 1052.86328125 C-328.35890593 1050.46978222 -326.49986881 1048.1071067 -324.625 1045.75 C-319.61579737 1039.32824971 -315.0152784 1032.59843403 -310.34814453 1025.92675781 C-309.25426129 1024.36338829 -308.15694518 1022.80242112 -307.05859375 1021.2421875 C-301.64085386 1013.5398585 -296.31541598 1005.7731508 -291 998 C-290.443125 997.18660156 -289.88625 996.37320313 -289.3125 995.53515625 C-285.19433461 989.4398035 -281.33960238 983.17788694 -277.453125 976.93359375 C-275.42333546 973.67388937 -273.37563034 970.4262429 -271.3125 967.1875 C-270.76335937 966.32511719 -270.21421875 965.46273437 -269.6484375 964.57421875 C-268.51370265 962.80220391 -267.37270604 961.03418837 -266.2265625 959.26953125 C-262.74290708 953.87671096 -259.55631449 948.4175709 -256.53515625 942.75390625 C-254.9441086 939.8997368 -253.22041954 937.17541747 -251.4375 934.4375 C-248.76585497 930.30753345 -246.50398661 926.14147056 -244.37109375 921.71484375 C-242.7416492 918.48845069 -240.94262409 915.37237554 -239.125 912.25 C-236.33852995 907.45509171 -233.74929146 902.60663123 -231.3125 897.625 C-229.54239697 894.01701972 -227.79512003 890.52898799 -225.5625 887.1875 C-222.60582924 882.66100078 -220.48518413 877.74845543 -218.23168945 872.84814453 C-215.74697929 867.48368027 -213.0616756 862.26218202 -210.25 857.0625 C-207.40094539 851.78653948 -204.8594744 846.5624132 -202.76171875 840.93359375 C-201.77972609 838.44084315 -200.41196273 836.2714183 -199 834 C-198.27699968 832.35681746 -197.55714772 830.71201463 -196.8671875 829.0546875 C-194.26670651 822.89318749 -191.39993011 816.84228574 -188.55688477 810.79003906 C-180.11212514 792.9468354 -180.11212514 792.9468354 -172.92578125 774.578125 C-170.58303245 768.05401443 -167.77561305 761.69675769 -164.9375 755.375 C-162.81447579 750.63837227 -160.90796961 745.82643183 -159 741 C-158.06279408 738.66654853 -157.12526771 736.33322575 -156.1875 734 C-153.89892964 728.27783965 -151.62612596 722.54949542 -149.375 716.8125 C-149.09809326 716.11318359 -148.82118652 715.41386719 -148.53588867 714.69335938 C-146.52898872 709.55702591 -144.77006622 704.35823978 -143.04443359 699.12133789 C-141.32627802 693.98655083 -139.47254668 688.90185499 -137.625 683.8125 C-136.83300103 681.61991167 -136.04133544 679.42720289 -135.25 677.234375 C-134.86714844 676.17412109 -134.48429687 675.11386719 -134.08984375 674.02148438 C-129.09520778 660.25457686 -129.09520778 660.25457686 -124.69921875 646.2890625 C-123.94584152 643.82269907 -123.08256415 641.41849987 -122.1875 639 C-118.26666086 628.38357403 -114.49795252 617.63470902 -111.73828125 606.65234375 C-111.11166844 604.4011792 -110.410298 602.21556579 -109.66015625 600.00390625 C-107.65360166 594.05061548 -105.89675809 588.02652069 -104.125 582 C-103.59664551 580.21021729 -103.59664551 580.21021729 -103.05761719 578.38427734 C-101.53644373 573.22887966 -100.02038276 568.07199036 -98.5078125 562.9140625 C-98.29358643 562.18372803 -98.07936035 561.45339355 -97.85864258 560.70092773 C-97.45693274 559.33079587 -97.05571796 557.96051874 -96.6550293 556.59008789 C-95.46222863 552.52379127 -94.21237489 548.47870573 -92.9375 544.4375 C-90.85159934 537.70230269 -89.16046787 530.88301954 -87.49560547 524.03515625 C-86.69556416 520.74986348 -85.88056696 517.46834469 -85.0625 514.1875 C-84.89790283 513.5267749 -84.73330566 512.8660498 -84.5637207 512.18530273 C-83.31427064 507.19529283 -82.00782374 502.22166153 -80.6875 497.25 C-78.20052032 487.88211481 -75.8588103 478.47936001 -73.52514648 469.07226562 C-72.00099678 462.94383516 -70.43285234 456.83663834 -68.75 450.75 C-67.28102599 445.33277094 -66.18919469 439.90936738 -65.20947266 434.3840332 C-64.20903409 428.85122469 -62.95200495 423.40041322 -61.625 417.9375 C-57.88389891 402.50634468 -54.42309377 387.01614121 -51.67578125 371.375 C-51 368 -51 368 -49.9765625 364.45703125 C-48.77137516 360.19066807 -48.22729353 355.96264996 -47.66015625 351.57421875 C-47.12841363 348.69525721 -46.44839168 346.15845887 -45.55859375 343.38671875 C-43.70050145 337.38986566 -42.85660104 331.33172791 -42 325.125 C-40.94868878 317.56090486 -39.62885245 310.25188374 -37.69580078 302.86230469 C-36.62757372 298.46795588 -36.01813113 294.04317142 -35.4375 289.5625 C-35.18794332 287.73431443 -34.9379443 285.90618919 -34.6875 284.078125 C-34.57019531 283.20736328 -34.45289063 282.33660156 -34.33203125 281.43945312 C-33.40575757 274.63406594 -32.41461794 267.84717673 -31 261.125 C-30.13696679 256.99715899 -29.58079098 252.87237837 -29.0625 248.6875 C-28.4776489 244.0817976 -27.7338006 239.67748565 -26.5625 235.1875 C-24.61875941 227.33400268 -23.9113371 219.32431067 -23.09008789 211.2878418 C-22.46509505 205.33555016 -21.57345696 199.77144014 -20 194 C-18.50441859 186.33636716 -17.79944971 178.69205205 -17.39428711 170.90600586 C-16.46878121 154.46878121 -16.46878121 154.46878121 -14 152 C-13.72219472 149.88617333 -13.50674589 147.764115 -13.31640625 145.640625 C-13.25661087 144.98782562 -13.19681549 144.33502625 -13.13520813 143.66244507 C-13.00699629 142.25652736 -12.88084896 140.85042018 -12.75653076 139.44415283 C-12.56267032 137.25192602 -12.36340847 135.06025262 -12.16259766 132.86865234 C-11.77044977 128.5795125 -11.38460204 124.28982213 -11 120 C-10.62956436 115.87456466 -10.2545851 111.74960214 -9.875 107.625 C-9.79967041 106.76551758 -9.72434082 105.90603516 -9.64672852 105.02050781 C-9.11302923 99.22605847 -9.11302923 99.22605847 -8 97 C-7.63919567 94.33186711 -7.33164921 91.67780193 -7.0625 89 C-6.97750244 88.17854492 -6.89250488 87.35708984 -6.80493164 86.51074219 C-5.95006758 77.98565159 -5.30941749 69.44398095 -4.69750977 60.8984375 C-4.30837878 55.55431759 -3.76059251 50.3052899 -3 45 C-2.77709882 42.00248339 -2.6360226 39.00257301 -2.5 36 C-2.31098485 31.82766569 -2.10565326 27.72626214 -1.50390625 23.58984375 C-0.84844879 18.92034446 -0.64424416 14.27016621 -0.4375 9.5625 C-0.37272461 8.17901367 -0.37272461 8.17901367 -0.30664062 6.76757812 C-0.20145069 4.51183837 -0.09930893 2.25600501 0 0 Z " fill="#FFFFFF" transform="translate(1484,0)"/>
</svg>
